<?xml version="1.0" encoding="UTF-8"?>
<svg id="Layer_1" data-name="Layer 1" xmlns="http://www.w3.org/2000/svg" viewBox="0 0 592.83 592.83">
  <defs>
    <style>
      .cls-1 {
        fill: #65994d;
      }

      .cls-1, .cls-2 {
        stroke-width: 0px;
      }

      .cls-2 {
        fill: #f8f2e4;
      }
    </style>
  </defs>
  <rect class="cls-2" x="31.68" y="31.68" width="529.48" height="529.48" rx="103.48" ry="103.48"/>
  <path class="cls-1" d="M483.2,412.45c0,39.77,1.65,59.97,4.81,79.88.35,2.19-1.33,4.18-3.55,4.18h-50.05c-3.59,0-6.79-2.47-7.61-5.97-4.33-18.95-4.98-48.58-4.98-78.87v-14.19c0-25.96-2.73-44.39-10.82-56.54-.09-.09-.13-.22-.22-.3-5.67-8.44-13.97-13.8-25.83-16.53-6.58-1.56-14.28-2.29-23.19-2.29h-36.73v167.6c0,3.92-3.18,7.1-7.1,7.1h-132.51c-4.15,0-7.53-3.37-7.53-7.53l-.22-205.63c-12.5-3.2-24.75-6.36-36.99-9.47-10.6-2.73-21.28-5.41-31.84-8.13-4.5-1.12-6.53-4.54-5.32-8.96,7.79-27.77,14.58-55.94,23.79-83.28,9.56-28.55,29.72-48.54,57.97-59.14,18.39-6.92,37.38-12.11,56.2-17.82,1.95-.56,4.84-.04,6.62,1.08,5.58,3.5,11.33,6.27,17.22,8.44.13.09.3.13.43.17,1.3.52,2.64.95,3.94,1.34.35.17.69.26,1.04.35,1.25.39,2.55.78,3.81,1.08,1.51.43,3.03.78,4.59,1.08,1.51.35,3.07.65,4.63.91,11.33,1.9,22.97,2.08,34.87,1.17,11.85-.91,23.45-3.46,34.39-8.39.52-.17.99-.43,1.51-.65,1.64-.78,3.55-1.34,4.84-2.51,1.6-1.43,3.2-2.42,4.84-3.07,2.08-.78,4.24-.99,6.4-.87.43.04.91.13,1.34.17l.99.13c.22.04.48.04.69.09,4.07.43,8.09.61,12.16.74,56.93,1.95,92.06,29.81,100.89,79.86,0,.09.04.22.04.3,1.51,8.26,2.25,17.18,2.25,26.65l.65,30.76c0,17.05-.91,25.01-7.66,24.62l-5.19-.13-54.9-1.21c-4.76-.13-7.53-5.36-4.93-9.34,6.83-10.38,9.86-24.49,9.86-42.22,0-36.3-17.13-58.58-56.24-58.58h-45.56v122.52h23.71c5.28,0,10.56.17,15.79.43l5.15.3c8.71.51,17.39,1.53,25.98,3.05l1.62.29c5.93,1.38,8.61,2.21,12.37,3.68,7.01,2.73,13.76,5.97,20.25,9.78,10.08,5.8,19.42,12.85,27.82,20.98,4.98,4.67,9.17,10.12,12.59,16.53,8.91,16.44,12.89,39.15,12.89,70.52v15.88Z"/>
</svg>